# xmcd
#
# Track frame offsets:
#       150
#       14785
#       36210
#       51241
#       69981
#       83161
#       99850
#       113239
#       135411
#       150368
#       164440
#       183605
#
# Disc length: 2657 seconds
#
# Revision: 0
# Processed by: cddbd v1.4PL0 Copyright (c) Steve Scherf et al.
# Submitted via: WhereIsIt 3.25
#
DISCID=960a5f0c
DTITLE=John Denver - The Very Best Of John Denver [CD 1)
DYEAR=1900
DGENRE=
TTITLE0=Take Me Home, Country Roads
TTITLE1=Eagles and Horses
TTITLE2=High, Wide and Handsome
TTITLE3=Hold On To Me
TTITLE4=Whispering Jesse
TTITLE5=Never A Doubt
TTITLE6=Eagle and The Hawk
TTITLE7=I Watch You Sleeping
TTITLE8=For You
TTITLE9=Annie's Song
TTITLE10=Potter's Wheel
TTITLE11=Two Different Directions
EXTD=
EXTT0=
EXTT1=
EXTT2=
EXTT3=
EXTT4=
EXTT5=
EXTT6=
EXTT7=
EXTT8=
EXTT9=
EXTT10=
EXTT11=
PLAYORDER=
